<svg xmlns="http://www.w3.org/2000/svg" xmlns:xlink="http://www.w3.org/1999/xlink" viewBox="0 0 241.72 222.69"><defs><style>.cls-1,.cls-11,.cls-13{fill-rule:evenodd;}.cls-1{fill:url(#linear-gradient);}.cls-2{fill:url(#linear-gradient-2);}.cls-3{fill:url(#linear-gradient-3);}.cls-4{fill:url(#linear-gradient-4);}.cls-5{fill:url(#linear-gradient-5);}.cls-6{fill:url(#linear-gradient-6);}.cls-7{fill:url(#linear-gradient-7);}.cls-8{fill:url(#linear-gradient-8);}.cls-9{opacity:0.36;}.cls-10,.cls-11{fill:#214182;}.cls-12,.cls-13{fill:#fff;}</style><linearGradient id="linear-gradient" x1="-52.42" y1="-82.31" x2="190.42" y2="-82.31" gradientTransform="translate(58.89 214.99) rotate(-2.71)" gradientUnits="userSpaceOnUse"><stop offset="0" stop-color="#f8f252"/><stop offset="0.26" stop-color="#e4f464"/><stop offset="0.78" stop-color="#b1f993"/><stop offset="1" stop-color="#99fba9"/></linearGradient><linearGradient id="linear-gradient-2" x1="69.26" y1="188.03" x2="123.43" y2="188.03" gradientUnits="userSpaceOnUse"><stop offset="0" stop-color="#37bfee"/><stop offset="1" stop-color="#38c1e8"/></linearGradient><linearGradient id="linear-gradient-3" x1="101.52" y1="20.11" x2="118.09" y2="66.14" gradientUnits="userSpaceOnUse"><stop offset="0" stop-color="#4acea8"/><stop offset="1" stop-color="#46cbb6"/></linearGradient><linearGradient id="linear-gradient-4" x1="209.04" y1="127.11" x2="224.59" y2="102.97" gradientUnits="userSpaceOnUse"><stop offset="0" stop-color="#40c7ca"/><stop offset="1" stop-color="#42c8c5"/></linearGradient><linearGradient id="linear-gradient-5" x1="155.02" y1="20.36" x2="226.39" y2="134.56" gradientUnits="userSpaceOnUse"><stop offset="0" stop-color="#10c49d"/><stop offset="1" stop-color="#01bec8"/></linearGradient><linearGradient id="linear-gradient-6" x1="111.69" y1="47.44" x2="183.07" y2="161.64" xlink:href="#linear-gradient-5"/><linearGradient id="linear-gradient-7" x1="39.3" y1="92.69" x2="110.67" y2="206.88" xlink:href="#linear-gradient-5"/><linearGradient id="linear-gradient-8" x1="106.66" y1="50.59" x2="178.03" y2="164.78" xlink:href="#linear-gradient-5"/></defs><title>mau</title><g id="Layer_2" data-name="Layer 2"><g id="Layer_1-2" data-name="Layer 1"><g id="_Group_" data-name="&lt;Group&gt;"><path id="_Path_" data-name="&lt;Path&gt;" class="cls-1" d="M129.09,216.83,5.83,93.13A19.92,19.92,0,0,1,17.17,59.34L219,31a19.92,19.92,0,0,1,20.47,28.87L160.9,211.91A19.92,19.92,0,0,1,129.09,216.83Z"/><path id="_Path_2" data-name="&lt;Path&gt;" class="cls-2" d="M72.88,192.16c2.54,24.72,32.21,35.94,50.46,19.07l.09-.08L69.26,156.78Z"/><path id="_Path_3" data-name="&lt;Path&gt;" class="cls-3" d="M101.44,4c-21.31-12-47.33,5-44.83,29.33l2.07,20.22L163.12,38.82Z"/><path id="_Path_4" data-name="&lt;Path&gt;" class="cls-4" d="M223.84,118.35a30.17,30.17,0,0,0,5.1-38.15l-33.05,64Z"/><polygon id="_Path_5" data-name="&lt;Path&gt;" class="cls-5" points="195.89 144.19 228.94 80.2 228.94 80.2 195.89 144.19 195.89 144.19"/><polygon id="_Path_6" data-name="&lt;Path&gt;" class="cls-6" points="163.12 38.82 58.68 53.51 58.68 53.51 163.12 38.82 163.12 38.82"/><polygon id="_Path_7" data-name="&lt;Path&gt;" class="cls-7" points="69.26 156.78 123.43 211.15 123.43 211.15 69.26 156.78 69.26 156.78"/><path id="_Path_8" data-name="&lt;Path&gt;" class="cls-8" d="M218.21,70,163.12,38.82,58.68,53.51,69.26,156.78l54.17,54.37,72.46-67,33.05-64A29.86,29.86,0,0,0,218.21,70Z"/></g><g id="_Group_2" data-name="&lt;Group&gt;" class="cls-9"><path id="_Compound_Path_" data-name="&lt;Compound Path&gt;" class="cls-10" d="M199.47,86.08c-1.44,0-2.28-.48-2.28-1.84V79.3c0-.75-1.41-1.44-3.76-1.44s-3.73.11-3.73,1.44v7H177.35c-1.26,0-1.8-.16-1.8-1.16v-1h9.2c1.37,0,2.5.06,2.5-1.08V81.93h-9.9c-1.26,0-1.8-.17-1.8-1v-.77h9.93c1.27,0,2.67-.42,2.67-.91V77.86H159.76a1,1,0,0,1-1.07-1.07v-.25c0-.66-1.33-1.42-3.48-1.42s-4,.55-4,1.42v.29l0,0a1.05,1.05,0,0,1-1.08,1.07h-9A1,1,0,0,1,140,76.79l0,0v-.29c0-.66-1.31-1.42-3.48-1.42s-4,.55-4,1.42v.25a1,1,0,0,1-1.07,1.07H104.92c-1.36,0-2.06.48-2.06,1.44v8.07c0,.7.88,1.42,3.06,1.42h14.8c1.14,0,2.6-.7,2.6-1.45v-1H112.09c-1,0-1.73-.24-1.73-1.2v-1h9.16c1.09,0,2.53,0,2.53-1.1V81.93h-9.9c-1,0-1.79-.08-1.79-.72v-.64H129c1.9,0,3.48.6,3.48,2.49v4.31c0,.66,1.76,1.42,3.84,1.42s3.65-.73,3.65-1.42V83.06a2.74,2.74,0,0,1,3-2.49h5.15c1.72,0,3,.78,3,2.4v4.4c0,.66,1.33,1.42,3.49,1.42s4-.55,4-1.42V83a2.92,2.92,0,0,1,2.68-2.4h3.88a2.62,2.62,0,0,1,2.8,2.49v4.31c0,.66.63,1.42,2.26,1.42h35.58c1.63,0,3-.64,3-1.42V86.08ZM97,77.86H91.23a4.34,4.34,0,0,0-3.52,1.44l-4.39,6.43L78.86,79.3c-.49-.7-2.25-1.44-4.3-1.44H70l8,9.51a8.21,8.21,0,0,0,5.14,1.42c2.76,0,4.59-.5,5.34-1.42s5-6,5-6v6c0,.68,1.17,1.42,3.54,1.42s4-.72,4-1.42V79.3C100.91,78.57,99.53,77.86,97,77.86Z"/><g id="_Group_3" data-name="&lt;Group&gt;"><path id="_Path_9" data-name="&lt;Path&gt;" class="cls-11" d="M160.38,100a2.8,2.8,0,0,0-1,3.82l13,22.54-7.49,13a2.8,2.8,0,0,0,4.84,2.8l22.12-38.32A2.8,2.8,0,1,0,187,101l-11.4,19.75L164.2,101a2.81,2.81,0,0,0-3.82-1"/><path id="_Compound_Path_2" data-name="&lt;Compound Path&gt;" class="cls-11" d="M103.12,105.05a11.33,11.33,0,1,0,11.33,11.33,11.33,11.33,0,0,0-11.33-11.33m-13.9-5.26a2.77,2.77,0,0,0-2.76,2.76v38.17a2.76,2.76,0,1,0,5.52,0V128l.26.3A14,14,0,0,0,103,132.72,16.5,16.5,0,0,0,114.93,128a15.73,15.73,0,0,0,4.9-11.76,15.56,15.56,0,0,0-5-11.72A16.52,16.52,0,0,0,103,99.86c-4.33,0-8,1.34-10.78,4.38l-.26.41v-2.1A2.77,2.77,0,0,0,89.22,99.79Z"/><path id="_Compound_Path_3" data-name="&lt;Compound Path&gt;" class="cls-11" d="M139.52,105.05a11.33,11.33,0,1,1-11.33,11.33,11.33,11.33,0,0,1,11.33-11.33m13.9-5.26a2.77,2.77,0,0,1,2.76,2.76v28a2.77,2.77,0,0,1-5.53,0V128l-.26.3a14,14,0,0,1-10.78,4.41,16.48,16.48,0,0,1-11.9-4.72,16.46,16.46,0,0,1,.05-23.48,16.56,16.56,0,0,1,11.85-4.66c4.33,0,8,1.34,10.78,4.38l.26.41v-2.1A2.77,2.77,0,0,1,153.42,99.79Z"/></g></g><path id="_Compound_Path_4" data-name="&lt;Compound Path&gt;" class="cls-12" d="M198.33,85c-1.44,0-2.28-.48-2.28-1.84V78.26c0-.75-1.42-1.44-3.77-1.44s-3.73.11-3.73,1.44v7H176.21c-1.27,0-1.8-.16-1.8-1.16v-1h9.2c1.36,0,2.5.06,2.5-1.08V80.89h-9.9c-1.27,0-1.8-.17-1.8-.94v-.78h9.92c1.27,0,2.68-.42,2.68-.91V76.82H158.62a1.05,1.05,0,0,1-1.08-1.07V75.5c0-.66-1.32-1.42-3.48-1.42s-4,.55-4,1.42v.29l0,0a1.05,1.05,0,0,1-1.08,1.07h-9a1.05,1.05,0,0,1-1.08-1.07l0,0V75.5c0-.66-1.32-1.42-3.49-1.42s-4,.55-4,1.42v.25a1.05,1.05,0,0,1-1.08,1.07H103.78c-1.36,0-2.07.48-2.07,1.44v8.07c0,.7.89,1.42,3.06,1.42h14.81c1.14,0,2.59-.7,2.59-1.45v-1H111c-1,0-1.74-.24-1.74-1.2v-1h9.16c1.09,0,2.54,0,2.54-1.1V80.89H111c-1,0-1.8-.08-1.8-.72v-.64h18.68c1.9,0,3.48.6,3.48,2.49v4.31c0,.66,1.76,1.42,3.84,1.42s3.65-.73,3.65-1.42V82a2.73,2.73,0,0,1,3-2.49H147c1.71,0,3,.78,3,2.4v4.4c0,.66,1.32,1.42,3.49,1.42s4-.55,4-1.42v-4.4a2.93,2.93,0,0,1,2.68-2.4h3.89a2.62,2.62,0,0,1,2.8,2.49v4.31c0,.66.63,1.42,2.26,1.42h35.58c1.62,0,2.95-.64,2.95-1.42V85ZM95.82,76.82H90.09a4.33,4.33,0,0,0-3.52,1.44l-4.39,6.43-4.46-6.43c-.49-.7-2.26-1.44-4.3-1.44H68.88l8,9.51c.4.47,2.37,1.42,5.14,1.42s4.58-.5,5.34-1.42l5-6v6c0,.68,1.17,1.42,3.54,1.42s4-.72,4-1.42V78.26C99.77,77.53,98.39,76.82,95.82,76.82Z"/><path id="_Path_10" data-name="&lt;Path&gt;" class="cls-13" d="M159.23,98.91a2.81,2.81,0,0,0-1,3.82l13,22.54-7.49,13a2.8,2.8,0,0,0,4.85,2.8l22.12-38.32a2.8,2.8,0,0,0-4.85-2.8l-11.4,19.75-11.4-19.75a2.81,2.81,0,0,0-3.82-1"/><path class="cls-13" d="M113.73,103.47a16.58,16.58,0,0,0-11.85-4.66c-4.33,0-8,1.35-10.78,4.4l-.26.41v-2.11a2.77,2.77,0,0,0-5.53,0v38.17a2.77,2.77,0,1,0,5.53,0V127l.26.3a14,14,0,0,0,10.78,4.41A16.52,16.52,0,0,0,113.79,127a15.76,15.76,0,0,0,4.89-11.77A15.6,15.6,0,0,0,113.73,103.47ZM102,126.67a11.33,11.33,0,1,1,11.34-11.32A11.32,11.32,0,0,1,102,126.67Z"/><path class="cls-13" d="M152.27,98.75a2.77,2.77,0,0,0-2.77,2.76v2.11l-.25-.41c-2.75-3-6.45-4.4-10.78-4.4a16.61,16.61,0,0,0-11.86,4.66,16.47,16.47,0,0,0,0,23.49,16.5,16.5,0,0,0,11.91,4.72,14,14,0,0,0,10.78-4.41l.25-.3v2.56a2.77,2.77,0,0,0,5.53,0v-28A2.77,2.77,0,0,0,152.27,98.75Zm-13.9,27.92a11.33,11.33,0,1,1,11.33-11.32A11.32,11.32,0,0,1,138.37,126.67Z"/></g></g></svg>